<svg xmlns="http://www.w3.org/2000/svg" width="512" height="512" viewBox="0 0 512 512" fill="none">
  <defs>
    <linearGradient id="sa-bg" x1="96" y1="74" x2="424" y2="446" gradientUnits="userSpaceOnUse">
      <stop stop-color="#725CFF"/>
      <stop offset="0.54" stop-color="#4F46E5"/>
      <stop offset="1" stop-color="#0891B2"/>
    </linearGradient>
    <radialGradient id="sa-glow" cx="0" cy="0" r="1" gradientUnits="userSpaceOnUse" gradientTransform="translate(165 126) rotate(47) scale(331)">
      <stop stop-color="#FFFFFF" stop-opacity="0.5"/>
      <stop offset="0.56" stop-color="#A5F3FC" stop-opacity="0.18"/>
      <stop offset="1" stop-color="#111827" stop-opacity="0"/>
    </radialGradient>
    <filter id="sa-shadow" x="70" y="74" width="372" height="368" color-interpolation-filters="sRGB" filterUnits="userSpaceOnUse">
      <feDropShadow dx="0" dy="18" stdDeviation="20" flood-color="#1E1B4B" flood-opacity="0.28"/>
    </filter>
  </defs>
  <rect x="28" y="28" width="456" height="456" rx="112" fill="url(#sa-bg)"/>
  <rect x="28" y="28" width="456" height="456" rx="112" fill="url(#sa-glow)"/>
  <path d="M91 185C118 109 182 72 270 75C361 78 418 140 424 224C431 316 368 399 279 418C187 438 100 387 83 301" stroke="#E0F2FE" stroke-opacity="0.18" stroke-width="18" stroke-linecap="round"/>
  <g filter="url(#sa-shadow)">
    <path d="M138 249L256 148L374 249" stroke="#F8FAFC" stroke-width="28" stroke-linecap="round" stroke-linejoin="round"/>
    <path d="M175 242V354C175 369 187 381 202 381H310C325 381 337 369 337 354V242" stroke="#F8FAFC" stroke-width="24" stroke-linecap="round" stroke-linejoin="round"/>
    <rect x="214" y="249" width="84" height="84" rx="22" fill="#ECFEFF"/>
    <path d="M235 291H277" stroke="#4F46E5" stroke-width="14" stroke-linecap="round"/>
    <path d="M256 270V312" stroke="#4F46E5" stroke-width="14" stroke-linecap="round"/>
  </g>
  <path d="M256 333V381" stroke="#A5F3FC" stroke-width="11" stroke-linecap="round"/>
  <path d="M214 291H160" stroke="#A5F3FC" stroke-width="11" stroke-linecap="round"/>
  <path d="M298 291H352" stroke="#A5F3FC" stroke-width="11" stroke-linecap="round"/>
  <circle cx="160" cy="291" r="19" fill="#DFFBFF" stroke="#67E8F9" stroke-width="7"/>
  <circle cx="352" cy="291" r="19" fill="#DFFBFF" stroke="#67E8F9" stroke-width="7"/>
  <circle cx="256" cy="381" r="19" fill="#DFFBFF" stroke="#67E8F9" stroke-width="7"/>
  <circle cx="356" cy="158" r="14" fill="#C4B5FD"/>
  <circle cx="127" cy="356" r="10" fill="#C4B5FD" fill-opacity="0.82"/>
  <circle cx="399" cy="363" r="8" fill="#BAE6FD" fill-opacity="0.9"/>
</svg>
